<?xml version="1.0" encoding="UTF-8" standalone="no"?>
<!-- Created with Inkscape (http://www.inkscape.org/) -->

<svg
   width="96"
   height="96"
   viewBox="0 0 96 96"
   version="1.1"
   id="svg1"
   inkscape:version="1.4.2 (f4327f4, 2025-05-13)"
   sodipodi:docname="sunflower.svg"
   xmlns:inkscape="http://www.inkscape.org/namespaces/inkscape"
   xmlns:sodipodi="http://sodipodi.sourceforge.net/DTD/sodipodi-0.dtd"
   xmlns="http://www.w3.org/2000/svg"
   xmlns:svg="http://www.w3.org/2000/svg">
  <sodipodi:namedview
     id="namedview1"
     pagecolor="#ffffff"
     bordercolor="#000000"
     borderopacity="0.25"
     inkscape:showpageshadow="2"
     inkscape:pageopacity="0.0"
     inkscape:pagecheckerboard="0"
     inkscape:deskcolor="#d1d1d1"
     inkscape:document-units="px"
     inkscape:zoom="15.441667"
     inkscape:cx="51.32218"
     inkscape:cy="58.316244"
     inkscape:window-width="3840"
     inkscape:window-height="2071"
     inkscape:window-x="3191"
     inkscape:window-y="-9"
     inkscape:window-maximized="1"
     inkscape:current-layer="layer1" />
  <defs
     id="defs1">
    <inkscape:path-effect
       effect="bspline"
       id="path-effect20"
       is_visible="true"
       lpeversion="1.3"
       weight="33.333333"
       steps="2"
       helper_size="0"
       apply_no_weight="true"
       apply_with_weight="true"
       only_selected="false"
       uniform="false" />
    <inkscape:path-effect
       effect="mirror_symmetry"
       start_point="53.995897,1.5098424"
       end_point="41.155934,99.854949"
       center_point="47.575915,50.682396"
       id="path-effect19"
       is_visible="true"
       lpeversion="1.2"
       lpesatellites=""
       mode="vertical"
       discard_orig_path="false"
       fuse_paths="false"
       oposite_fuse="false"
       split_items="false"
       split_open="false"
       link_styles="false" />
    <inkscape:path-effect
       effect="bspline"
       id="path-effect18"
       is_visible="true"
       lpeversion="1.3"
       weight="33.333333"
       steps="2"
       helper_size="0"
       apply_no_weight="true"
       apply_with_weight="true"
       only_selected="false"
       uniform="false" />
    <inkscape:path-effect
       effect="mirror_symmetry"
       start_point="49.554236,7.2941638"
       end_point="49.554236,77.966504"
       center_point="49.554236,42.630334"
       id="path-effect17"
       is_visible="true"
       lpeversion="1.2"
       lpesatellites=""
       mode="vertical"
       discard_orig_path="false"
       fuse_paths="false"
       oposite_fuse="false"
       split_items="false"
       split_open="false"
       link_styles="false" />
  </defs>
  <g
     inkscape:label="Layer 1"
     inkscape:groupmode="layer"
     id="layer1">
    <path
       id="path1"
       style="display:inline;opacity:1;fill:#000000;stroke-width:5.4;stroke-linecap:round"
       d="M 48.087891 7.0683594 A 10.710633 10.912034 0 0 0 39.75 17.359375 A 11.980573 11.276834 60 0 0 27.605469 12.535156 A 10.912034 10.710633 60 0 0 25.529297 25.617188 A 11.980573 11.276834 30 0 0 12.599609 27.511719 A 10.912034 10.710633 30 0 0 17.341797 39.878906 A 11.980573 11.276834 0 0 0 7.0917969 47.984375 A 10.912034 10.710633 0 0 0 17.382812 56.322266 A 11.276834 11.980573 60 0 0 12.560547 68.466797 A 10.710633 10.912034 60 0 0 25.640625 70.542969 A 11.276834 11.980573 30 0 0 27.535156 83.472656 A 10.710633 10.912034 30 0 0 39.902344 78.728516 A 11.276834 11.980573 0 0 0 48.007812 88.978516 A 10.710633 10.912034 0 0 0 56.347656 78.6875 A 11.980573 11.276834 60 0 0 68.490234 83.511719 A 10.912034 10.710633 60 0 0 70.568359 70.429688 A 11.980573 11.276834 30 0 0 83.496094 68.537109 A 10.912034 10.710633 30 0 0 78.753906 56.167969 A 11.980573 11.276834 0 0 0 89.003906 48.064453 A 10.912034 10.710633 0 0 0 78.712891 39.724609 A 11.276834 11.980573 60 0 0 83.537109 27.580078 A 10.710633 10.912034 60 0 0 70.455078 25.503906 A 11.276834 11.980573 30 0 0 68.560547 12.576172 A 10.710633 10.912034 30 0 0 56.193359 17.318359 A 11.276834 11.980573 0 0 0 48.087891 7.0683594 z M 37.708984 29.15625 C 38.030265 29.172048 38.350954 29.213215 38.667969 29.277344 C 39.936025 29.533857 41.037068 30.131952 42.050781 30.667969 A 1.3090866 1.1593414 83.404431 0 1 42.642578 32.410156 A 1.3090866 1.1593414 83.404431 0 1 41.111328 33.029297 C 40.097615 32.493281 39.171357 32.022161 38.318359 31.849609 C 37.465366 31.677061 36.570058 31.762088 35.759766 32.117188 C 34.949481 32.472282 34.099128 33.174693 33.181641 33.955078 A 1.3090866 1.1593414 83.404431 0 1 31.550781 33.679688 A 1.3090866 1.1593414 83.404431 0 1 31.748047 31.851562 C 32.665534 31.071179 33.650689 30.209989 34.865234 29.677734 C 35.472503 29.411608 36.105903 29.247851 36.746094 29.181641 C 37.066191 29.148549 37.387704 29.140452 37.708984 29.15625 z M 58.291016 29.798828 C 59.254011 29.811217 60.223863 30.043852 61.134766 30.5 C 62.349312 31.108202 63.334465 32.031386 64.251953 32.869141 A 1.3090866 1.1593414 83.404431 0 1 64.449219 34.708984 A 1.3090866 1.1593414 83.404431 0 1 62.818359 34.880859 C 61.900872 34.043103 61.050519 33.288576 60.240234 32.882812 C 59.429942 32.477045 58.534634 32.335863 57.681641 32.455078 C 56.828643 32.574291 55.902385 32.986355 54.888672 33.458984 A 1.3090866 1.1593414 83.404431 0 1 53.355469 32.744141 A 1.3090866 1.1593414 83.404431 0 1 53.949219 31.041016 C 54.962932 30.568387 56.065929 30.036597 57.333984 29.859375 C 57.650999 29.81507 57.970017 29.794698 58.291016 29.798828 z M 36.945312 35.748047 C 40.03906 35.748047 42.546875 39.15493 42.546875 43.357422 C 42.546875 47.559912 40.039061 50.966797 36.945312 50.966797 C 33.851565 50.966797 31.34375 47.559912 31.34375 43.357422 C 31.34375 39.15493 33.851565 35.748047 36.945312 35.748047 z M 59.054688 35.748047 C 62.148435 35.748047 64.65625 39.15493 64.65625 43.357422 C 64.65625 47.559912 62.148435 50.966797 59.054688 50.966797 C 55.960939 50.966797 53.453125 47.559912 53.453125 43.357422 C 53.453125 39.15493 55.960938 35.748047 59.054688 35.748047 z M 41.566406 57.648438 A 1.35 1.35 0 0 1 42.402344 57.880859 C 43.697541 58.765911 44.866672 59.543811 46.171875 59.921875 C 47.47709 60.299928 49.120152 60.309311 50.269531 59.96875 C 51.418916 59.628187 52.334731 58.90263 53.414062 58.017578 A 1.35 1.35 0 0 1 55.314453 58.205078 A 1.35 1.35 0 0 1 55.125 60.105469 C 54.045669 60.99052 52.801939 62.033721 51.037109 62.556641 C 49.272272 63.079558 47.246757 63.044206 45.421875 62.515625 C 43.596983 61.987041 42.174103 60.99638 40.878906 60.111328 A 1.35 1.35 0 0 1 40.527344 58.234375 A 1.35 1.35 0 0 1 41.566406 57.648438 z " />
  </g>
</svg>
